<?xml version="1.0" encoding="UTF-8" standalone="yes"?>
<svg xmlns="http://www.w3.org/2000/svg" xmlns:xlink="http://www.w3.org/1999/xlink" width="8944.256px" height="8949.762px" version="1.1" viewBox="-2232.872 -1464.871 4472.128 4474.881">
  <!--
	Exported with Concepts: Smarter Sketching
	Version: 1687 on iOS 15.7
	https://concepts.app/
	-->
  <title>30F9F443-1610-416F-9376-557A3AB14243</title>
  <desc>Drawing exported from Concepts: Smarter Sketching</desc>
  <defs></defs>
  <g id="Registration" opacity="1.000">
    <path id="STROKE_a4d4ee44-c9a6-4eec-8c17-203727a488c4" opacity="1.000" fill="none" stroke="#5f676f" stroke-width="16.709" stroke-opacity="1.000" stroke-linecap="round" stroke-linejoin="round" d="M 2101.322 -1408.840 Q 2101.200 -1406.606 2101.035 -1405.963 Q 2100.630 -1399.076 2100.701 -1389.547 Q 2100.773 -1380.019 2103.845 -1340.948 L 2103.947 -1332.440 "></path>
    <path id="STROKE_c8c6c0be-3514-4fc0-a202-9ceb1c9f8e92" opacity="1.000" fill="none" stroke="#5f676f" stroke-width="16.709" stroke-opacity="1.000" stroke-linecap="round" stroke-linejoin="round" d="M 2100.298 -1309.404 Q 2101.860 -1309.891 2111.915 -1311.268 Q 2121.969 -1312.645 2131.452 -1313.012 Q 2140.935 -1313.379 2143.020 -1313.224 Q 2145.105 -1313.070 2150.175 -1312.819 Q 2155.245 -1312.569 2158.318 -1312.402 Q 2161.391 -1312.235 2162.866 -1312.190 Q 2164.341 -1312.144 2166.681 -1312.246 Q 2169.020 -1312.349 2174.630 -1311.994 Q 2178.814 -1311.500 2186.531 -1310.604 "></path>
    <path id="STROKE_cd75a744-b2ca-4cdf-882f-b4cf0f763635" opacity="1.000" fill="none" stroke="#5f676f" stroke-width="16.709" stroke-opacity="1.000" stroke-linecap="round" stroke-linejoin="round" d="M -2176.141 2859.631 Q -2175.453 2859.933 -2174.012 2860.797 Q -2172.571 2861.662 -2167.737 2863.468 Q -2162.904 2865.275 -2155.619 2867.059 Q -2148.334 2868.843 -2142.730 2869.881 Q -2137.126 2870.920 -2134.115 2871.529 Q -2131.103 2872.137 -2125.535 2872.926 Q -2119.967 2873.716 -2111.868 2874.392 Q -2103.769 2875.069 -2094.370 2875.618 Q -2084.971 2876.168 -2082.286 2876.218 Q -2079.601 2876.268 -2077.903 2876.245 Q -2076.205 2876.222 -2072.348 2876.773 "></path>
    <path id="STROKE_b4e7e4e5-3d64-4f3e-8df1-1589c89c3cbe" opacity="1.000" fill="none" stroke="#5f676f" stroke-width="16.709" stroke-opacity="1.000" stroke-linecap="round" stroke-linejoin="round" d="M -2070.208 2865.050 L -2070.065 2866.582 Q -2070.252 2868.866 -2072.651 2939.633 Q -2072.998 2941.370 -2073.548 2945.136 Q -2074.099 2948.901 -2075.372 2957.290 "></path>
  </g>
  <g id="Shape1" opacity="1.000">
    <path id="STROKE_3a0f239f-dc99-4c4c-b796-ec4a6b0d7ea3" opacity="1.000" fill="#87597a" stroke="#87597a" stroke-width="0.500" stroke-opacity="1.000" stroke-linecap="round" stroke-linejoin="round" d="M 489.966 234.224 Q 492.286 234.983 485.842 234.370 Q 479.397 233.757 473.917 230.182 Q 468.438 226.606 464.438 225.538 Q 460.439 224.470 460.743 224.244 Q 461.047 224.018 459.218 223.846 Q 457.388 223.675 445.642 220.109 Q 433.896 216.544 413.548 190.794 Q 393.199 165.045 380.213 147.345 Q 367.228 129.646 344.256 110.946 Q 321.285 92.247 295.643 76.931 Q 270.000 61.615 221.921 46.530 Q 173.841 31.445 115.423 24.868 Q 57.004 18.291 3.184 21.759 Q -50.637 25.228 -77.347 27.859 Q -104.057 30.490 -138.998 39.610 Q -173.940 48.730 -191.861 54.555 Q -209.782 60.381 -227.333 67.337 Q -244.885 74.293 -266.158 82.665 Q -287.432 91.037 -333.269 112.791 Q -379.106 134.546 -435.053 166.519 Q -491.001 198.493 -533.877 229.831 Q -576.753 261.170 -595.413 277.676 Q -614.073 294.182 -641.902 327.339 Q -669.731 360.496 -686.510 386.005 Q -703.289 411.513 -714.321 431.278 Q -725.354 451.043 -739.230 477.407 Q -753.106 503.772 -765.353 537.842 Q -777.601 571.912 -782.942 590.572 Q -788.283 609.232 -794.262 647.416 Q -800.242 685.600 -801.376 725.120 Q -802.510 764.640 -798.628 795.753 Q -794.746 826.866 -786.360 851.803 Q -777.975 876.740 -763.862 907.376 Q -749.750 938.011 -731.801 963.426 Q -713.852 988.841 -691.146 1006.396 Q -668.440 1023.951 -652.939 1035.044 Q -637.438 1046.137 -574.740 1058.174 Q -512.042 1070.211 -472.522 1073.511 Q -433.002 1076.812 -387.382 1086.475 Q -341.762 1096.138 -304.607 1109.466 Q -267.451 1122.795 -233.521 1134.068 Q -199.591 1145.341 -161.351 1161.408 Q -123.110 1177.475 -106.390 1185.730 Q -89.669 1193.986 -69.323 1205.949 Q -48.976 1217.913 -11.588 1248.652 Q 25.801 1279.391 47.339 1300.901 Q 68.877 1322.410 97.109 1350.674 Q 125.340 1378.938 155.828 1401.572 Q 186.316 1424.206 208.432 1436.147 Q 230.548 1448.089 266.262 1458.604 Q 301.977 1469.120 369.455 1470.031 Q 436.933 1470.942 478.409 1471.369 Q 519.884 1471.795 557.804 1464.938 Q 595.724 1458.080 639.663 1442.183 Q 683.603 1426.286 719.657 1409.755 Q 755.711 1393.224 803.955 1358.752 Q 852.199 1324.279 881.154 1306.227 Q 910.109 1288.174 939.630 1259.689 Q 969.150 1231.204 990.062 1201.700 Q 1010.974 1172.196 1029.730 1145.930 Q 1048.486 1119.664 1064.406 1094.949 Q 1080.327 1070.234 1090.783 1047.951 Q 1101.240 1025.668 1106.439 994.834 Q 1111.638 964.000 1112.683 944.083 Q 1113.729 924.166 1116.391 885.028 Q 1119.053 845.891 1116.054 801.717 Q 1113.055 757.543 1110.667 738.176 Q 1108.280 718.810 1105.842 707.515 Q 1103.404 696.220 1098.989 687.305 Q 1094.574 678.390 1092.243 674.229 Q 1089.911 670.068 1086.209 664.022 Q 1082.506 657.976 1080.816 655.364 Q 1079.125 652.753 1074.769 646.021 Q 1070.412 639.289 1068.384 637.700 Q 1066.356 636.111 1059.973 629.351 Q 1053.590 622.591 1050.415 618.387 Q 1047.241 614.184 1046.058 610.423 Q 1044.875 606.662 1044.876 607.086 Q 1044.877 607.510 1044.264 603.701 Q 1043.651 599.893 1043.606 600.202 Q 1043.561 600.512 1042.839 597.196 Q 1042.118 593.879 1040.950 590.534 Q 1039.782 587.189 1038.396 583.313 Q 1037.010 579.437 1036.943 579.141 Q 1036.875 578.846 1037.037 579.473 Q 1037.199 580.100 1036.311 577.747 Q 1035.422 575.394 1035.145 574.610 Q 1034.868 573.826 1034.927 574.036 Q 1034.985 574.245 1035.141 574.588 Q 1035.296 574.930 1034.683 573.277 Q 1034.071 571.623 1034.530 572.550 Q 1034.990 573.476 1033.202 568.584 Q 1031.415 563.693 1029.933 560.922 Q 1028.452 558.151 1028.727 558.759 Q 1029.002 559.366 1028.827 558.796 Q 1028.653 558.225 1028.952 559.162 Q 1029.251 560.099 1028.195 556.755 Q 1027.139 553.411 1024.846 547.124 Q 1022.553 540.838 1021.175 536.776 Q 1019.798 532.714 1009.709 517.292 Q 999.621 501.871 992.435 493.923 Q 985.249 485.975 976.037 467.760 Q 966.825 449.545 966.164 445.088 Q 965.503 440.630 955.619 417.601 Q 945.734 394.572 940.019 384.380 Q 934.304 374.189 930.549 364.924 Q 926.794 355.660 923.569 346.785 Q 920.343 337.909 916.849 328.971 Q 913.354 320.032 913.037 317.688 Q 912.719 315.343 903.947 293.372 Q 895.175 271.401 889.727 261.595 Q 884.279 251.788 876.107 242.393 Q 867.935 232.998 861.677 225.026 Q 855.418 217.053 843.753 206.976 Q 832.087 196.899 813.711 186.435 Q 795.335 175.970 785.300 170.512 Q 775.265 165.053 769.509 162.820 Q 763.752 160.586 760.300 159.644 Q 756.848 158.701 753.136 158.430 Q 749.425 158.160 745.572 158.078 Q 741.718 157.997 740.880 157.701 Q 740.042 157.405 741.456 157.899 Q 742.870 158.393 739.273 157.338 Q 735.677 156.283 732.111 154.905 Q 728.545 153.527 728.370 153.541 Q 728.196 153.554 726.463 152.962 Q 724.729 152.370 722.960 151.805 Q 721.190 151.240 721.429 151.357 Q 721.667 151.474 720.499 151.480 Q 719.331 151.485 719.303 151.228 Q 719.275 150.972 711.693 150.613 Q 704.110 150.255 695.477 150.348 Q 686.843 150.441 683.042 151.276 Q 679.242 152.110 675.897 152.709 Q 672.553 153.308 673.007 153.082 Q 673.460 152.857 671.003 154.876 Q 668.545 156.895 667.408 158.080 Q 666.271 159.265 666.019 159.391 Q 665.767 159.516 662.496 162.247 Q 659.225 164.977 658.742 165.085 Q 658.260 165.194 657.115 165.648 Q 655.970 166.103 656.225 165.834 Q 656.480 165.566 656.355 167.067 Q 656.229 168.569 647.426 169.811 Q 638.622 171.054 632.836 169.937 Q 627.049 168.820 625.090 166.785 Q 623.130 164.750 622.862 164.782 Q 622.593 164.814 622.871 165.005 Q 623.150 165.195 621.810 164.060 Q 620.471 162.926 618.509 160.749 Q 618.509 162.118 619.386 169.509 "></path>
  </g>
  <g id="Shape2" opacity="1.000">
    <path id="STROKE_71f838fd-f684-442a-b634-d76765b2a82e" opacity="1.000" fill="#d46e87" stroke="#d46e87" stroke-width="0.500" stroke-opacity="1.000" stroke-linecap="round" stroke-linejoin="round" d="M -1142.092 13.800 Q -1142.763 17.644 -1157.477 9.091 Q -1172.191 0.538 -1177.361 -3.061 Q -1182.531 -6.660 -1188.938 -18.518 Q -1195.345 -30.377 -1170.215 -57.626 Q -1145.085 -84.876 -1129.941 -100.138 Q -1114.797 -115.400 -1092.441 -137.406 Q -1070.085 -159.413 -1040.241 -186.677 Q -1010.397 -213.942 -991.750 -229.414 Q -973.103 -244.887 -959.148 -255.893 Q -945.193 -266.900 -926.671 -279.140 Q -908.149 -291.380 -874.806 -311.130 Q -841.463 -330.879 -821.231 -343.355 Q -800.998 -355.832 -764.107 -374.102 Q -727.215 -392.372 -697.958 -405.066 Q -668.701 -417.760 -634.728 -427.158 Q -600.754 -436.557 -557.083 -440.281 Q -513.412 -444.006 -475.912 -440.684 Q -438.413 -437.362 -419.247 -433.436 Q -400.082 -429.510 -374.575 -421.277 Q -349.069 -413.043 -329.352 -402.899 Q -309.635 -392.754 -291.572 -377.802 Q -273.509 -362.849 -254.535 -342.295 Q -235.561 -321.741 -215.104 -287.817 Q -194.647 -253.894 -181.676 -226.003 Q -168.705 -198.113 -157.287 -138.915 Q -145.869 -79.717 -135.268 -17.879 Q -124.668 43.958 -111.575 106.544 Q -98.482 169.130 -92.812 237.990 Q -87.143 306.850 -87.755 372.694 Q -88.368 438.539 -88.330 481.075 Q -88.292 523.611 -90.963 560.046 Q -93.633 596.480 -95.150 633.727 Q -96.667 670.973 -101.950 722.570 Q -107.232 774.167 -114.029 805.830 Q -120.826 837.493 -123.949 853.156 Q -127.072 868.818 -141.575 914.868 Q -156.079 960.918 -164.729 988.564 Q -173.378 1016.210 -194.446 1056.254 Q -215.514 1096.298 -232.400 1122.552 Q -249.286 1148.807 -276.884 1180.377 Q -304.481 1211.947 -351.541 1252.900 Q -398.600 1293.852 -423.791 1314.454 Q -448.982 1335.056 -470.239 1350.501 Q -491.495 1365.947 -525.080 1386.989 Q -558.666 1408.031 -598.378 1425.631 Q -638.090 1443.231 -673.247 1452.464 Q -708.404 1461.697 -726.700 1466.446 Q -744.997 1471.195 -798.754 1474.637 Q -852.510 1478.080 -889.187 1477.363 Q -925.864 1476.645 -952.699 1474.052 Q -979.534 1471.459 -1015.039 1458.739 Q -1050.544 1446.019 -1072.918 1435.411 Q -1095.293 1424.804 -1114.737 1411.199 Q -1134.181 1397.595 -1155.792 1379.756 Q -1177.404 1361.918 -1189.846 1352.266 Q -1202.289 1342.614 -1217.821 1329.559 Q -1233.354 1316.504 -1246.695 1290.478 Q -1260.037 1264.451 -1266.605 1247.101 Q -1273.173 1229.752 -1281.828 1195.055 Q -1290.482 1160.358 -1305.516 1106.374 Q -1320.550 1052.389 -1328.759 1019.306 Q -1336.967 986.224 -1340.659 966.168 Q -1344.352 946.113 -1344.361 902.104 Q -1344.371 858.096 -1341.763 835.491 Q -1339.155 812.886 -1338.132 801.341 Q -1337.108 789.796 -1331.330 763.532 Q -1325.551 737.269 -1317.868 716.592 Q -1310.185 695.916 -1302.678 672.624 Q -1295.171 649.333 -1289.279 633.797 Q -1283.387 618.261 -1280.764 589.118 Q -1278.141 559.975 -1278.284 543.121 Q -1278.427 526.268 -1278.301 518.523 Q -1278.174 510.778 -1276.885 500.604 Q -1275.595 490.431 -1276.075 474.244 Q -1276.555 458.058 -1280.035 440.419 Q -1283.516 422.781 -1286.896 408.380 Q -1290.277 393.978 -1297.025 355.724 Q -1303.773 317.470 -1306.720 299.099 Q -1309.666 280.729 -1310.153 272.636 Q -1310.640 264.543 -1310.536 260.265 Q -1310.432 255.987 -1310.717 253.108 Q -1311.002 250.229 -1310.366 250.116 Q -1309.730 250.004 -1311.094 250.034 Q -1312.458 250.064 -1307.633 247.161 Q -1302.809 244.258 -1291.962 248.568 "></path>
    <path id="STROKE_3e55b8e5-cc8e-4749-8a9e-1fd5888ece37" opacity="0.690" fill="#598765" stroke="#598765" stroke-width="0.500" stroke-opacity="1.000" stroke-linecap="round" stroke-linejoin="round" d="M 668.612 912.578 Q 664.916 912.622 643.843 912.261 Q 622.771 911.901 602.295 917.286 Q 602.949 918.584 619.824 920.462 "></path>
  </g>
</svg>