<?xml version="1.0" encoding="UTF-8" standalone="yes"?>
<svg xmlns="http://www.w3.org/2000/svg" xmlns:xlink="http://www.w3.org/1999/xlink" width="8944.256px" height="8949.762px" version="1.1" viewBox="-2232.872 -1464.871 4472.128 4474.881">
  <!--
	Exported with Concepts: Smarter Sketching
	Version: 1687 on iOS 15.7
	https://concepts.app/
	-->
  <title>1A19DD81-9F12-4114-A242-46D01FB59DFD</title>
  <desc>Drawing exported from Concepts: Smarter Sketching</desc>
  <defs></defs>
  <g id="Registration" opacity="1.000">
    <path id="STROKE_a4d4ee44-c9a6-4eec-8c17-203727a488c4" opacity="1.000" fill="none" stroke="#5f676f" stroke-width="16.709" stroke-opacity="1.000" stroke-linecap="round" stroke-linejoin="round" d="M 2101.322 -1408.840 Q 2101.200 -1406.606 2101.035 -1405.963 Q 2100.630 -1399.076 2100.701 -1389.547 Q 2100.773 -1380.019 2103.845 -1340.948 L 2103.947 -1332.440 "></path>
    <path id="STROKE_c8c6c0be-3514-4fc0-a202-9ceb1c9f8e92" opacity="1.000" fill="none" stroke="#5f676f" stroke-width="16.709" stroke-opacity="1.000" stroke-linecap="round" stroke-linejoin="round" d="M 2100.298 -1309.404 Q 2101.860 -1309.891 2111.915 -1311.268 Q 2121.969 -1312.645 2131.452 -1313.012 Q 2140.935 -1313.379 2143.020 -1313.224 Q 2145.105 -1313.070 2150.175 -1312.819 Q 2155.245 -1312.569 2158.318 -1312.402 Q 2161.391 -1312.235 2162.866 -1312.190 Q 2164.341 -1312.144 2166.681 -1312.246 Q 2169.020 -1312.349 2174.630 -1311.994 Q 2178.814 -1311.500 2186.531 -1310.604 "></path>
    <path id="STROKE_cd75a744-b2ca-4cdf-882f-b4cf0f763635" opacity="1.000" fill="none" stroke="#5f676f" stroke-width="16.709" stroke-opacity="1.000" stroke-linecap="round" stroke-linejoin="round" d="M -2176.141 2859.631 Q -2175.453 2859.933 -2174.012 2860.797 Q -2172.571 2861.662 -2167.737 2863.468 Q -2162.904 2865.275 -2155.619 2867.059 Q -2148.334 2868.843 -2142.730 2869.881 Q -2137.126 2870.920 -2134.115 2871.529 Q -2131.103 2872.137 -2125.535 2872.926 Q -2119.967 2873.716 -2111.868 2874.392 Q -2103.769 2875.069 -2094.370 2875.618 Q -2084.971 2876.168 -2082.286 2876.218 Q -2079.601 2876.268 -2077.903 2876.245 Q -2076.205 2876.222 -2072.348 2876.773 "></path>
    <path id="STROKE_b4e7e4e5-3d64-4f3e-8df1-1589c89c3cbe" opacity="1.000" fill="none" stroke="#5f676f" stroke-width="16.709" stroke-opacity="1.000" stroke-linecap="round" stroke-linejoin="round" d="M -2070.208 2865.050 L -2070.065 2866.582 Q -2070.252 2868.866 -2072.651 2939.633 Q -2072.998 2941.370 -2073.548 2945.136 Q -2074.099 2948.901 -2075.372 2957.290 "></path>
  </g>
  <g id="shape3" opacity="1.000">
    <path id="STROKE_4c44a81e-5e97-4564-a35e-93c327aab2fc" opacity="1.000" fill="#ffc046" stroke="#ffc046" stroke-width="0.500" stroke-opacity="1.000" stroke-linecap="round" stroke-linejoin="round" d="M 592.947 446.654 Q 592.990 449.899 579.222 445.609 Q 565.454 441.320 544.157 447.245 Q 522.860 453.170 504.947 455.781 Q 487.033 458.391 472.018 455.885 Q 457.004 453.380 434.171 445.535 Q 411.339 437.690 391.280 427.947 Q 371.221 418.205 361.222 407.385 Q 351.224 396.565 343.081 387.813 Q 334.938 379.061 329.055 351.921 Q 323.172 324.782 325.348 298.739 Q 327.525 272.696 331.765 254.588 Q 336.006 236.479 356.263 194.324 Q 376.520 152.169 398.518 119.253 Q 420.516 86.336 455.774 41.184 Q 491.032 -3.967 524.605 -42.923 Q 558.179 -81.878 590.971 -109.094 Q 623.763 -136.309 639.691 -147.440 Q 655.619 -158.570 673.907 -169.333 Q 692.195 -180.096 714.166 -184.318 Q 736.137 -188.540 753.952 -188.478 Q 771.767 -188.417 788.249 -174.701 Q 804.731 -160.985 836.129 -101.650 Q 867.526 -42.315 886.511 -11.823 Q 905.497 18.668 917.366 42.743 Q 929.235 66.817 944.171 102.700 Q 959.107 138.583 994.479 210.727 Q 1029.851 282.870 1050.964 327.367 Q 1072.077 371.865 1084.164 392.856 Q 1096.250 413.846 1101.410 431.883 Q 1106.569 449.920 1107.661 467.887 Q 1108.753 485.854 1105.074 507.454 Q 1101.395 529.054 1084.293 558.783 Q 1067.191 588.511 1050.248 608.615 Q 1033.304 628.719 1017.375 646.935 Q 1001.445 665.151 992.394 676.327 Q 983.343 687.503 972.281 701.355 Q 961.219 715.207 950.093 733.152 Q 938.967 751.096 933.409 784.733 Q 927.851 818.369 926.686 866.876 Q 925.521 915.383 922.885 941.135 Q 920.250 966.888 917.907 987.156 Q 915.564 1007.425 909.712 1045.907 Q 903.861 1084.389 893.394 1118.617 Q 882.927 1152.844 869.819 1180.470 Q 856.711 1208.095 829.321 1245.048 Q 801.932 1282.001 757.163 1319.646 Q 712.394 1357.290 666.816 1385.892 Q 621.238 1414.494 576.570 1436.952 Q 531.903 1459.411 478.252 1478.601 Q 424.602 1497.791 389.146 1507.452 Q 353.689 1517.113 333.792 1522.733 Q 313.895 1528.354 259.960 1542.559 Q 206.025 1556.765 170.226 1566.833 Q 134.427 1576.902 79.665 1587.462 Q 24.902 1598.023 -3.117 1603.201 Q -31.136 1608.380 -65.828 1609.391 Q -100.520 1610.402 -120.845 1610.669 Q -141.170 1610.937 -159.492 1608.768 Q -177.814 1606.599 -198.434 1596.844 Q -219.054 1587.090 -237.163 1573.729 Q -255.271 1560.367 -272.368 1540.264 Q -289.464 1520.160 -299.000 1503.185 Q -308.536 1486.209 -312.696 1470.283 Q -316.857 1454.356 -315.933 1429.907 Q -315.009 1405.457 -311.251 1386.697 Q -307.494 1367.937 -290.641 1329.218 Q -273.789 1290.498 -263.355 1270.507 Q -252.922 1250.517 -240.948 1225.257 Q -228.973 1199.998 -209.000 1159.493 Q -189.027 1118.989 -170.241 1089.927 Q -151.454 1060.866 -134.424 1040.397 Q -117.393 1019.928 -96.012 998.633 Q -74.631 977.338 -56.587 962.474 Q -38.542 947.610 3.147 935.738 Q 44.837 923.865 88.253 914.954 Q 131.668 906.043 199.368 882.867 Q 267.067 859.690 310.819 844.976 Q 354.570 830.261 374.732 823.639 Q 394.893 817.016 412.364 810.643 Q 429.834 804.269 437.582 802.436 Q 445.331 800.603 470.497 787.316 Q 495.664 774.030 518.935 756.565 Q 542.205 739.100 564.239 719.940 Q 586.273 700.781 601.782 686.550 Q 617.291 672.318 624.370 663.432 Q 631.450 654.547 638.859 634.921 Q 646.268 615.295 650.300 605.276 Q 654.333 595.257 656.855 590.052 Q 659.378 584.847 660.159 583.127 Q 660.940 581.406 667.884 564.248 Q 674.828 547.089 683.013 533.414 Q 691.198 519.739 702.300 504.605 Q 713.402 489.472 718.426 479.541 Q 723.449 469.610 725.404 464.035 Q 727.359 458.460 727.997 455.919 Q 728.635 453.378 728.576 453.783 Q 728.518 454.189 728.682 452.567 Q 728.847 450.946 728.847 451.456 Q 728.848 451.966 729.230 448.808 Q 729.612 445.650 729.816 432.200 Q 730.658 430.030 715.939 447.092 "></path>
  </g>
  <g id="Shape4" opacity="1.000">
    <path id="STROKE_f9674891-44b6-488b-b509-b4f85691254a" opacity="1.000" fill="#8b9bac" stroke="#8b9bac" stroke-width="0.500" stroke-opacity="1.000" stroke-linecap="round" stroke-linejoin="round" d="M -893.770 738.253 Q -897.751 738.143 -917.913 727.995 Q -938.075 717.846 -949.008 714.419 Q -959.941 710.992 -975.449 698.483 Q -990.957 685.975 -1010.357 646.963 Q -1029.757 607.952 -1037.048 577.005 Q -1044.339 546.058 -1053.234 509.272 Q -1062.129 472.487 -1066.926 437.006 Q -1071.722 401.526 -1073.008 378.672 Q -1074.294 355.819 -1075.002 318.281 Q -1075.709 280.743 -1065.563 228.981 Q -1055.417 177.219 -1038.985 128.665 Q -1022.552 80.110 -1000.921 40.333 Q -979.290 0.557 -965.092 -22.362 Q -950.895 -45.281 -939.150 -60.243 Q -927.405 -75.206 -901.804 -106.801 Q -876.204 -138.396 -839.154 -177.247 Q -802.104 -216.099 -780.315 -234.001 Q -758.526 -251.904 -743.830 -263.732 Q -729.133 -275.560 -700.910 -296.050 Q -672.688 -316.540 -644.062 -332.065 Q -615.437 -347.591 -584.580 -352.372 Q -553.723 -357.153 -535.275 -358.992 Q -516.826 -360.832 -486.722 -353.069 Q -456.617 -345.306 -426.214 -329.406 Q -395.811 -313.506 -373.773 -301.713 Q -351.735 -289.919 -317.412 -274.416 Q -283.088 -258.914 -254.157 -242.156 Q -225.227 -225.399 -205.472 -211.342 Q -185.718 -197.284 -167.745 -165.190 Q -149.772 -133.096 -139.826 -102.993 Q -129.880 -72.891 -125.626 -58.079 Q -121.372 -43.268 -109.817 -7.406 Q -98.262 28.455 -77.909 66.267 Q -57.556 104.079 -35.546 148.793 Q -13.536 193.506 -2.540 215.625 Q 8.456 237.744 27.036 266.843 Q 45.615 295.942 75.226 321.349 Q 104.837 346.756 129.710 365.882 Q 154.583 385.008 168.954 396.966 Q 183.325 408.924 201.128 435.373 Q 218.932 461.822 234.873 488.382 Q 250.814 514.942 266.025 531.583 Q 281.236 548.225 307.630 587.115 Q 334.024 626.006 348.630 648.278 Q 363.235 670.551 387.023 691.069 Q 410.812 711.587 427.209 722.365 Q 443.607 733.144 459.458 745.006 Q 475.310 756.869 481.944 779.984 Q 488.579 803.098 489.828 813.849 Q 491.077 824.599 491.794 827.627 Q 492.511 830.656 494.164 844.059 Q 495.816 857.461 490.051 874.481 Q 484.286 891.501 480.012 898.315 Q 475.738 905.129 470.408 912.486 Q 465.079 919.844 458.574 926.577 Q 452.069 933.309 451.926 932.865 Q 451.784 932.421 446.153 939.111 Q 440.522 945.802 405.883 969.758 Q 371.244 993.715 302.258 1023.246 Q 233.272 1052.777 199.771 1069.443 Q 166.269 1086.109 139.137 1093.664 Q 112.005 1101.218 96.149 1105.952 Q 80.292 1110.687 22.822 1113.690 Q -34.649 1116.694 -92.672 1115.213 Q -150.695 1113.732 -185.827 1115.889 Q -220.959 1118.045 -239.751 1119.917 Q -258.543 1121.788 -324.154 1135.813 Q -389.765 1149.839 -428.914 1160.090 Q -468.063 1170.342 -486.203 1176.385 Q -504.344 1182.428 -513.410 1185.788 Q -522.477 1189.148 -528.497 1190.534 Q -534.517 1191.919 -544.771 1196.134 Q -555.024 1200.348 -604.629 1209.388 Q -654.235 1218.428 -681.376 1221.010 Q -708.517 1223.591 -723.901 1224.762 Q -739.285 1225.933 -758.219 1226.017 Q -777.153 1226.101 -801.228 1216.565 Q -825.303 1207.029 -842.912 1199.033 Q -860.521 1191.037 -872.894 1186.372 Q -885.266 1181.707 -900.978 1169.510 Q -916.689 1157.313 -926.770 1148.889 Q -936.851 1140.464 -942.648 1137.311 Q -948.444 1134.158 -950.900 1133.609 Q -953.355 1133.060 -954.498 1132.996 Q -955.641 1132.932 -961.109 1132.564 "></path>
  </g>
</svg>